<svg width="377" height="247" viewBox="0 0 377 247" fill="none" xmlns="http://www.w3.org/2000/svg">
<path d="M254.34 214L280.35 82.42H231.9L238.53 48.25H376.23L369.6 82.42H321.15L295.14 214H254.34Z" fill="white"/>
<path d="M124.272 215L157.682 47.95H268.192L261.51 82.388H191.606L184.924 116.826H243.006L236.324 151.264H178.242L165.392 215H124.272Z" fill="white"/>
<path d="M26 127H116C123.18 127 129 132.82 129 140V140C129 147.18 123.18 153 116 153H52C37.6406 153 26 141.359 26 127V127Z" fill="white"/>
<path d="M0 91H127C134.18 91 140 96.8203 140 104V104C140 111.18 134.18 117 127 117H26C11.6406 117 0 105.359 0 91V91Z" fill="white"/>
<path d="M51 163H105C112.18 163 118 168.82 118 176V176C118 183.18 112.18 189 105 189H77C62.6406 189 51 177.359 51 163V163Z" fill="#FCFEFF"/>
</svg>